# xmcd CD database file
#
# Track frame offsets:
#	150
#	22488
#	48513
#	60825
#
# Disc length: 1106 seconds
#
# Revision: 0
# Processed by: cddbd v1.5.1PL0 Copyright (c) Steve Scherf et al.
# Submitted via: CDex 1.51
#
DISCID=30045004
DTITLE=Skoop On Somebody - 潮騒
DYEAR=2001
DGENRE=JPop
TTITLE0=潮騒
TTITLE1=Key of Love "live at BIG CAT Jul. 11. 2001"
TTITLE2=Ooo, baby, baby
TTITLE3=潮騒 (instrumental)
EXTD=YEAR: 2001
EXTT0=
EXTT1=
EXTT2=
EXTT3=
PLAYORDER=
